# xmcd CD database file
#
# Track frame offsets:
#	150
#	21105
#	38554
#	62072
#	82177
#	102776
#	123504
#	146434
#	164031
#	182328
#	196297
#	224993
#	247016
#	279881
#	298869
#
# Disc length: 4292 seconds
#
# Revision: 1
# Processed by: cddbd v1.4PL0 Copyright (c) Steve Scherf et al.
# Submitted via: CDex 1.50Beta7
#
DISCID=e410c20f
DTITLE=Eric Clapton - Chronicles
DYEAR=1900
DGENRE=Blues
TTITLE0=blue eyes blue
TTITLE1=change the world
TTITLE2=my father´s eyes
TTITLE3=tears in heaven
TTITLE4=layla
TTITLE5=pretending
TTITLE6=bad love
TTITLE7=before you accuse me
TTITLE8=it´s in the way that you use it
TTITLE9=forever man
TTITLE10=running on faith
TTITLE11=she´s waiting
TTITLE12=river of tears
TTITLE13=I get lost
TTITLE14=wonderful tonight
EXTD=
EXTT0=
EXTT1=
EXTT2=
EXTT3=
EXTT4=
EXTT5=
EXTT6=
EXTT7=
EXTT8=
EXTT9=
EXTT10=
EXTT11=
EXTT12=
EXTT13=
EXTT14=
PLAYORDER=
